<svg width="588" height="196" viewBox="0 0 588 196" fill="none" xmlns="http://www.w3.org/2000/svg">
<g clip-path="url(#clip0_113_14)">
<path d="M134.42 -0.179688C118.021 -0.179688 108.684 11.6703 108.684 21.7243C108.684 46.9813 146.748 40.9963 146.748 60.1483C146.748 65.5348 142.56 74.0333 132.744 74.0333C122.809 74.0333 118.499 66.6118 117.9 58.5923H104.853C104.853 66.8516 110.598 85.6453 132.144 85.6453C153.69 85.6453 159.794 67.5703 159.794 59.3113C159.794 32.6183 121.851 35.9713 121.851 21.8463C121.851 15.3825 128.673 11.5513 134.298 11.5513C139.924 11.5513 145.671 15.8596 145.671 19.69L158.837 19.8111C158.837 10.5942 150.818 -0.178894 134.419 -0.178894L134.42 -0.179688ZM-0.259766 1.01761V84.5686H18.8922C37.2062 84.5686 65.9332 75.95 65.9332 42.7936C65.9332 9.63661 37.2062 1.01862 18.8922 1.01862L-0.259766 1.01761ZM78.7602 1.01761V84.5686H92.1662V1.01761H78.7602ZM173.33 1.01761V84.5686H186.738V50.8126H188.293L213.551 84.5686H229.35L203.256 49.6156C213.55 47.5807 222.887 41.7148 222.887 25.9146C222.887 3.05161 203.495 1.01862 189.61 1.01862L173.33 1.01761ZM237.715 1.01761V55.5996C237.715 69.9636 247.53 85.6446 269.674 85.6446C291.819 85.6446 301.754 69.9636 301.754 55.5996V1.01761H288.229V54.1636C288.229 68.4076 278.891 74.0326 269.674 74.0326C260.457 74.0326 251.121 68.4077 251.121 54.1636V1.01761H237.715ZM317.225 1.01761V84.5686H330.631V50.8126H333.504C347.389 50.8126 366.781 48.6571 366.781 25.9146C366.781 3.05161 347.389 1.01862 333.504 1.01862L317.225 1.01761ZM371.416 1.01761V12.7476H391.047V84.5676H404.572V19.0906L395.834 12.7468H424.203V1.01682L371.416 1.01761ZM433.887 1.01761V84.5686H447.293V1.01761H433.887ZM456.742 1.01761L487.387 73.4356L494.09 89.3556L500.793 73.4356L531.436 1.01761H518.03L494.091 57.6346L470.152 1.01761H456.742ZM540.728 1.01761V84.5686H588.248V72.8386H554.135V44.7076H585.256V32.9776H554.135V19.8116L544.438 12.7491H588.249V1.0191L540.728 1.01761ZM3.44823 12.7476H20.4442C30.7382 12.7476 52.5242 17.7753 52.5242 42.7926C52.5242 67.8099 30.7382 72.8376 20.4442 72.8376H13.1434V19.8106L3.44823 12.7476ZM178.118 12.7476H193.081C200.024 12.7476 209.479 13.8239 209.479 25.9136C209.479 37.8836 200.023 39.0816 193.081 39.0816H186.737V19.0916L178.118 12.7476ZM322.008 12.7476H336.971C343.914 12.7476 353.369 13.8239 353.369 25.9136C353.369 37.8836 343.913 39.0816 336.971 39.0816H330.626V19.0916L322.008 12.7476ZM115.438 106.652L73.0632 194.99H86.4712L93.6528 180.148L86.1118 174.642H134.71L144.524 194.99H157.932L122.26 120.656L115.438 106.652ZM338.008 106.652L295.635 194.99H309.041L316.223 180.148L308.682 174.642H357.28L367.096 194.99H380.502L344.832 120.656L338.008 106.652ZM44.5082 110.243C19.7302 110.243 -0.259766 129.513 -0.259766 153.214C-0.259766 176.915 19.7302 196.187 44.5082 196.187C52.8872 196.187 60.6672 193.914 67.2502 190.084V174.762C61.5046 180.747 53.4852 184.457 44.5082 184.457C27.0322 184.457 12.9062 170.452 12.9062 153.215C12.9062 135.978 27.0312 121.975 44.5082 121.975C53.4857 121.975 61.5052 125.686 67.2502 131.671V116.349C60.6667 112.518 52.8872 110.245 44.5082 110.245V110.243ZM166.878 111.439V194.99H180.284V161.236H183.157C197.042 161.236 216.432 159.08 216.432 136.338C216.432 113.475 197.042 111.44 183.157 111.44L166.878 111.439ZM228.13 111.439V194.99H241.536V111.439H228.13ZM251.228 111.439V123.169H270.859V194.989H284.384V129.514L275.646 123.168H304.015V111.438L251.228 111.439ZM389.448 111.439V194.99H428.112V183.26H402.854V111.44L389.448 111.439ZM171.668 123.169H186.631C193.574 123.169 203.029 124.247 203.029 136.337C203.029 148.307 193.573 149.503 186.631 149.503H180.287V129.515L171.668 123.169ZM115.445 134.542L129.09 162.911H101.918L115.445 134.542ZM338.015 134.542L351.661 162.911H324.489L338.015 134.542Z" fill="#3C3E3D"/>
</g>
<defs>
<clipPath id="clip0_113_14">
<rect width="588" height="196" fill="white"/>
</clipPath>
</defs>
</svg>
