<svg width="60" height="60" viewBox="0 0 60 60" fill="none"
  xmlns="http://www.w3.org/2000/svg">
  <path d="M43.7 16.0998C48.2 20.5998 51 26.8998 51 33.7998C51 40.3998 48.5 46.2998 44.4 50.7998C44 51.1998 43.6 51.6998 43.1 52.0998C38.6 56.2998 32.6 58.7998 26 58.7998C12.2 58.7998 1 47.5998 1 33.7998C1 19.9998 12.2 8.7998 26 8.7998C30.8 8.7998 35.2 10.0998 39 12.4998" stroke="#3c3e3d" stroke-width="2" stroke-miterlimit="10" stroke-linecap="round" stroke-linejoin="round"/>
  <path d="M37.5 22.2999C40.4 25.1999 42.3 29.2999 42.3 33.7999C42.2 42.7999 35 49.9999 26 49.9999C17 49.9999 9.70001 42.6999 9.70001 33.6999C9.70001 24.6999 17 17.3999 26 17.3999C28.1 17.3999 30.2 17.7999 32 18.5999" stroke="#3c3e3d" stroke-width="2" stroke-miterlimit="10" stroke-linecap="round" stroke-linejoin="round"/>
  <path d="M31.3 28.4998C32.7 29.8998 33.5 31.6998 33.5 33.7998C33.5 37.8998 30.1 41.2998 26 41.2998C21.9 41.2998 18.5 37.8998 18.5 33.7998C18.5 29.7998 21.6 26.5998 25.5 26.2998" stroke="#3c3e3d" stroke-width="2" stroke-miterlimit="10" stroke-linecap="round" stroke-linejoin="round"/>
  <path d="M58.5 6.2998L53.5 11.2998H48.5V6.2998L53.5 1.2998V6.2998H58.5Z" stroke="#3c3e3d" stroke-width="2" stroke-miterlimit="10" stroke-linecap="round" stroke-linejoin="round"/>
  <path d="M26 33.7998L48.5 11.2998" stroke="#3c3e3d" stroke-width="2" stroke-miterlimit="10" stroke-linecap="round" stroke-linejoin="round"/>
</svg>
  