<svg width="56" height="60" viewBox="0 0 56 60" fill="none"
  xmlns="http://www.w3.org/2000/svg">
  <path d="M35.3 52.9002C30.3 53.8002 24.9 53.3002 20.7 51.1002C17.4 49.4002 14.6 46.9002 12.5 43.9002L14.3 42.8002C15.1 42.3002 15.1 41.1002 14.3 40.6002L8.70001 37.4002L3.10001 34.2002C2.30001 33.7002 1.20001 34.3002 1.20001 35.3002V41.7002V48.1002C1.20001 49.1002 2.20001 49.7002 3.10001 49.2002L4.80001 48.2002C8.30001 52.4002 12.9 55.6002 17.9 57.3002C21.1 58.4002 24.3 59.0002 27.6 59.0002C30.5 59.0002 33.3 58.4002 36 57.5002C41.7 55.7002 46.7 52.0002 50 47.3002C51.9 44.6002 53.2 42.1002 54 38.9002" stroke="#3c3e3d" stroke-width="2" stroke-miterlimit="10" stroke-linecap="round" stroke-linejoin="round"/>
  <path d="M20.2 7.7001C25.2 6.8001 30.5 7.0001 34.8 9.2001C38.1 10.9001 40.9 13.4001 43 16.4001L41.2 17.5001C40.4 18.0001 40.4 19.2001 41.2 19.7001L46.8 22.9001L52.4 26.1001C53.2 26.6001 54.3 26.0001 54.3 25.0001V18.6001V12.2001C54.3 11.2001 53.3 10.6001 52.4 11.1001L50.7 12.1001C47.2 7.9001 42.6 4.7001 37.5 3.0001C34.3 1.9001 31.1 1.6001 27.8 1.6001C24.9 1.6001 22.1 1.9001 19.4 2.8001C13.6 4.6001 8.70002 8.3001 5.30002 13.0001C3.30002 15.7001 2.20002 18.5001 1.40002 21.7001" stroke="#3c3e3d" stroke-width="2" stroke-miterlimit="10" stroke-linecap="round" stroke-linejoin="round"/>
  <path d="M29.708 21.3145C26.6611 21.3145 24.7715 23.2236 24.0391 27.042H31.3633V28.9902H23.834L23.8047 29.8105V30.7188L23.834 31.3633H30.4551V33.3115H24.0684C24.4102 35.0107 25.0645 36.3291 26.0312 37.2666C27.0078 38.1943 28.3164 38.6582 29.957 38.6582C31.4414 38.6582 32.9307 38.3359 34.4248 37.6914V40.0352C32.999 40.6699 31.4561 40.9873 29.7959 40.9873C27.4912 40.9873 25.626 40.3379 24.2002 39.0391C22.7842 37.7305 21.8516 35.8213 21.4023 33.3115H19V31.3633H21.168L21.1387 30.748V30.1328L21.168 28.9902H19V27.042H21.373C21.7637 24.4639 22.6816 22.4814 24.127 21.0947C25.5723 19.6982 27.4326 19 29.708 19C31.71 19 33.502 19.4639 35.084 20.3916L33.9707 22.5449C32.3887 21.7246 30.9678 21.3145 29.708 21.3145Z" fill="#3c3e3d"/>
</svg>
  